<svg width="581" height="32" viewBox="0 0 581 32" fill="none" xmlns="http://www.w3.org/2000/svg">
<path d="M6.8778 1.90916L13.909 24.0114H14.1789L21.2244 1.90916H28.0426L18.0142 31.0001H10.088L0.0454102 1.90916H6.8778Z" fill="black"/>
<path d="M38.8274 31.4262C36.6209 31.4262 34.7128 30.9575 33.1029 30.02C31.5026 29.073 30.2668 27.7567 29.3956 26.0711C28.5243 24.376 28.0887 22.4111 28.0887 20.1762C28.0887 17.9224 28.5243 15.9527 29.3956 14.2671C30.2668 12.572 31.5026 11.2557 33.1029 10.3182C34.7128 9.37128 36.6209 8.89779 38.8274 8.89779C41.0338 8.89779 42.9372 9.37128 44.5376 10.3182C46.1474 11.2557 47.388 12.572 48.2592 14.2671C49.1304 15.9527 49.566 17.9224 49.566 20.1762C49.566 22.4111 49.1304 24.376 48.2592 26.0711C47.388 27.7567 46.1474 29.073 44.5376 30.02C42.9372 30.9575 41.0338 31.4262 38.8274 31.4262ZM38.8558 26.7387C39.8596 26.7387 40.6976 26.4546 41.37 25.8864C42.0423 25.3088 42.549 24.5228 42.8899 23.5285C43.2402 22.5342 43.4154 21.4025 43.4154 20.1336C43.4154 18.8646 43.2402 17.733 42.8899 16.7387C42.549 15.7444 42.0423 14.9584 41.37 14.3807C40.6976 13.8031 39.8596 13.5143 38.8558 13.5143C37.8425 13.5143 36.9903 13.8031 36.299 14.3807C35.6171 14.9584 35.101 15.7444 34.7507 16.7387C34.4098 17.733 34.2393 18.8646 34.2393 20.1336C34.2393 21.4025 34.4098 22.5342 34.7507 23.5285C35.101 24.5228 35.6171 25.3088 36.299 25.8864C36.9903 26.4546 37.8425 26.7387 38.8558 26.7387Z" fill="black"/>
<path d="M63.3586 31.4262C61.1238 31.4262 59.2014 30.9527 57.5916 30.0057C55.9912 29.0493 54.7601 27.7236 53.8984 26.0285C53.0461 24.3334 52.62 22.3826 52.62 20.1762C52.62 17.9414 53.0509 15.9811 53.9126 14.2955C54.7838 12.6004 56.0196 11.2794 57.62 10.3325C59.2204 9.37601 61.1238 8.89779 63.3302 8.89779C65.2336 8.89779 66.9003 9.24344 68.3302 9.93472C69.7601 10.626 70.8918 11.5967 71.7251 12.8467C72.5584 14.0967 73.0177 15.5645 73.1029 17.2501H67.3927C67.2317 16.1611 66.8056 15.2851 66.1143 14.6222C65.4325 13.9499 64.5376 13.6137 63.4296 13.6137C62.4921 13.6137 61.673 13.8694 60.9723 14.3807C60.281 14.8826 59.7412 15.6165 59.3529 16.5825C58.9647 17.5484 58.7706 18.7179 58.7706 20.091C58.7706 21.483 58.9599 22.6667 59.3387 23.6421C59.727 24.6175 60.2715 25.3609 60.9723 25.8722C61.673 26.3836 62.4921 26.6393 63.4296 26.6393C64.1209 26.6393 64.7412 26.4972 65.2904 26.2131C65.8491 25.929 66.3084 25.5171 66.6683 24.9773C67.0376 24.4281 67.2791 23.77 67.3927 23.0029H73.1029C73.0082 24.6696 72.5537 26.1374 71.7393 27.4063C70.9344 28.6658 69.8217 29.6506 68.4012 30.3609C66.9808 31.0711 65.2999 31.4262 63.3586 31.4262Z" fill="black"/>
<path d="M86.9204 31.4262C84.6761 31.4262 82.7443 30.9717 81.125 30.0626C79.5151 29.144 78.2746 27.8467 77.4034 26.1705C76.5322 24.4849 76.0965 22.4915 76.0965 20.1904C76.0965 17.9461 76.5322 15.9764 77.4034 14.2813C78.2746 12.5862 79.5009 11.2652 81.0823 10.3182C82.6733 9.37128 84.5388 8.89779 86.6789 8.89779C88.1183 8.89779 89.4583 9.1298 90.6988 9.59382C91.9488 10.0484 93.0378 10.7349 93.9659 11.6535C94.9034 12.572 95.6325 13.7273 96.1534 15.1194C96.6742 16.502 96.9346 18.1213 96.9346 19.9773V21.6393H78.5113V17.8893H91.2386C91.2386 17.0181 91.0492 16.2463 90.6704 15.5739C90.2916 14.9016 89.7661 14.376 89.0937 13.9972C88.4308 13.609 87.659 13.4148 86.7784 13.4148C85.8598 13.4148 85.0454 13.6279 84.3352 14.054C83.6344 14.4707 83.0852 15.0342 82.6875 15.7444C82.2897 16.4451 82.0861 17.2264 82.0767 18.0881V21.6535C82.0767 22.733 82.2755 23.6658 82.6732 24.4518C83.0804 25.2378 83.6534 25.8438 84.392 26.27C85.1306 26.6961 86.0066 26.9092 87.0198 26.9092C87.6922 26.9092 88.3077 26.8145 88.8664 26.6251C89.4251 26.4357 89.9034 26.1516 90.3011 25.7728C90.6988 25.394 91.0018 24.93 91.2102 24.3807L96.8068 24.7501C96.5227 26.0948 95.9403 27.269 95.0596 28.2728C94.1884 29.2671 93.0615 30.0436 91.6789 30.6023C90.3058 31.1516 88.7197 31.4262 86.9204 31.4262ZM89.392 6.56825L86.5369 3.10234L83.6818 6.56825H78.5255V6.36938L84.2784 0.119385H88.7812L94.5482 6.36938V6.56825H89.392Z" fill="black"/>
<path d="M116.363 31.412C114.971 31.412 113.73 31.1705 112.641 30.6876C111.552 30.1951 110.691 29.4707 110.056 28.5143C109.431 27.5484 109.119 26.3457 109.119 24.9063C109.119 23.6942 109.341 22.6762 109.786 21.8523C110.231 21.0285 110.837 20.3656 111.604 19.8637C112.371 19.3618 113.243 18.983 114.218 18.7273C115.203 18.4717 116.235 18.2917 117.315 18.1876C118.584 18.055 119.606 17.9319 120.383 17.8182C121.159 17.6951 121.723 17.5152 122.073 17.2785C122.423 17.0417 122.599 16.6914 122.599 16.2273V16.1421C122.599 15.2425 122.315 14.5465 121.746 14.054C121.188 13.5616 120.392 13.3154 119.36 13.3154C118.271 13.3154 117.405 13.5569 116.761 14.0398C116.117 14.5133 115.691 15.1099 115.482 15.8296L109.886 15.3751C110.17 14.0493 110.728 12.9035 111.562 11.9376C112.395 10.9622 113.47 10.2141 114.786 9.69325C116.112 9.16294 117.646 8.89779 119.388 8.89779C120.601 8.89779 121.761 9.03984 122.869 9.32393C123.986 9.60802 124.976 10.0484 125.837 10.645C126.709 11.2415 127.395 12.0086 127.897 12.9461C128.399 13.8741 128.65 14.9868 128.65 16.2842V31.0001H122.911V27.9745H122.741C122.39 28.6563 121.922 29.2576 121.334 29.7785C120.747 30.2898 120.042 30.6923 119.218 30.9859C118.394 31.27 117.442 31.412 116.363 31.412ZM118.096 27.2359C118.986 27.2359 119.772 27.0607 120.454 26.7103C121.136 26.3504 121.671 25.8675 122.059 25.2614C122.447 24.6554 122.641 23.9688 122.641 23.2018V20.8864C122.452 21.0095 122.191 21.1232 121.86 21.2273C121.538 21.322 121.173 21.412 120.766 21.4972C120.359 21.573 119.952 21.644 119.545 21.7103C119.137 21.7671 118.768 21.8192 118.437 21.8665C117.727 21.9707 117.106 22.1364 116.576 22.3637C116.046 22.591 115.634 22.8987 115.34 23.287C115.047 23.6658 114.9 24.1393 114.9 24.7075C114.9 25.5313 115.198 26.1611 115.795 26.5967C116.401 27.0228 117.168 27.2359 118.096 27.2359Z" fill="black"/>
<path d="M133.344 31.0001V9.18188H139.396V31.0001H133.344ZM136.384 6.36938C135.485 6.36938 134.713 6.07109 134.069 5.4745C133.434 4.86844 133.117 4.14401 133.117 3.3012C133.117 2.46787 133.434 1.75291 134.069 1.15632C134.713 0.550255 135.485 0.247225 136.384 0.247225C137.284 0.247225 138.051 0.550255 138.685 1.15632C139.329 1.75291 139.651 2.46787 139.651 3.3012C139.651 4.14401 139.329 4.86844 138.685 5.4745C138.051 6.07109 137.284 6.36938 136.384 6.36938Z" fill="black"/>
<path d="M150.294 18.3864V31.0001H144.243V9.18188H150.01V13.0313H150.266C150.749 11.7624 151.558 10.7586 152.695 10.02C153.831 9.27185 155.209 8.89779 156.828 8.89779C158.343 8.89779 159.664 9.22923 160.791 9.89211C161.918 10.555 162.794 11.502 163.419 12.733C164.044 13.9546 164.356 15.4129 164.356 17.108V31.0001H158.305V18.1876C158.315 16.8523 157.974 15.8107 157.283 15.0626C156.591 14.305 155.64 13.9262 154.428 13.9262C153.613 13.9262 152.893 14.1014 152.268 14.4518C151.653 14.8021 151.17 15.3135 150.82 15.9859C150.479 16.6487 150.303 17.4489 150.294 18.3864Z" fill="black"/>
<path d="M177.165 31.3552C175.508 31.3552 174.007 30.929 172.663 30.0768C171.327 29.215 170.267 27.9508 169.481 26.2842C168.704 24.608 168.316 22.5531 168.316 20.1194C168.316 17.6194 168.718 15.5408 169.523 13.8836C170.328 12.2169 171.398 10.9717 172.734 10.1478C174.078 9.31446 175.551 8.89779 177.151 8.89779C178.373 8.89779 179.391 9.10613 180.205 9.52279C181.029 9.92999 181.692 10.4414 182.194 11.0569C182.705 11.6629 183.093 12.2595 183.359 12.8467H183.543V1.90916H189.58V31.0001H183.614V27.5057H183.359C183.075 28.1118 182.672 28.7131 182.151 29.3097C181.64 29.8968 180.972 30.3845 180.148 30.7728C179.334 31.1611 178.34 31.3552 177.165 31.3552ZM179.083 26.5398C180.058 26.5398 180.882 26.2747 181.555 25.7444C182.236 25.2046 182.757 24.4518 183.117 23.4859C183.486 22.52 183.671 21.3883 183.671 20.091C183.671 18.7936 183.491 17.6667 183.131 16.7103C182.771 15.7539 182.251 15.0152 181.569 14.4944C180.887 13.9736 180.058 13.7131 179.083 13.7131C178.089 13.7131 177.251 13.983 176.569 14.5228C175.887 15.0626 175.371 15.8107 175.021 16.7671C174.67 17.7236 174.495 18.8315 174.495 20.091C174.495 21.3599 174.67 22.4821 175.021 23.4575C175.38 24.4234 175.896 25.1809 176.569 25.7302C177.251 26.27 178.089 26.5398 179.083 26.5398Z" fill="black"/>
<path d="M200.777 31.412C199.385 31.412 198.144 31.1705 197.055 30.6876C195.966 30.1951 195.105 29.4707 194.47 28.5143C193.845 27.5484 193.533 26.3457 193.533 24.9063C193.533 23.6942 193.755 22.6762 194.2 21.8523C194.645 21.0285 195.251 20.3656 196.018 19.8637C196.785 19.3618 197.657 18.983 198.632 18.7273C199.617 18.4717 200.649 18.2917 201.729 18.1876C202.998 18.055 204.02 17.9319 204.797 17.8182C205.573 17.6951 206.137 17.5152 206.487 17.2785C206.838 17.0417 207.013 16.6914 207.013 16.2273V16.1421C207.013 15.2425 206.729 14.5465 206.16 14.054C205.602 13.5616 204.806 13.3154 203.774 13.3154C202.685 13.3154 201.819 13.5569 201.175 14.0398C200.531 14.5133 200.105 15.1099 199.896 15.8296L194.3 15.3751C194.584 14.0493 195.142 12.9035 195.976 11.9376C196.809 10.9622 197.884 10.2141 199.2 9.69325C200.526 9.16294 202.06 8.89779 203.803 8.89779C205.015 8.89779 206.175 9.03984 207.283 9.32393C208.4 9.60802 209.39 10.0484 210.251 10.645C211.123 11.2415 211.809 12.0086 212.311 12.9461C212.813 13.8741 213.064 14.9868 213.064 16.2842V31.0001H207.325V27.9745H207.155C206.804 28.6563 206.336 29.2576 205.749 29.7785C205.161 30.2898 204.456 30.6923 203.632 30.9859C202.808 31.27 201.856 31.412 200.777 31.412ZM202.51 27.2359C203.4 27.2359 204.186 27.0607 204.868 26.7103C205.55 26.3504 206.085 25.8675 206.473 25.2614C206.861 24.6554 207.055 23.9688 207.055 23.2018V20.8864C206.866 21.0095 206.606 21.1232 206.274 21.2273C205.952 21.322 205.588 21.412 205.18 21.4972C204.773 21.573 204.366 21.644 203.959 21.7103C203.552 21.7671 203.182 21.8192 202.851 21.8665C202.141 21.9707 201.52 22.1364 200.99 22.3637C200.46 22.591 200.048 22.8987 199.754 23.287C199.461 23.6658 199.314 24.1393 199.314 24.7075C199.314 25.5313 199.612 26.1611 200.209 26.5967C200.815 27.0228 201.582 27.2359 202.51 27.2359Z" fill="black"/>
<path d="M233.067 18.3864V31.0001H227.016V9.18188H232.783V13.0313H233.039C233.522 11.7624 234.332 10.7586 235.468 10.02C236.604 9.27185 237.982 8.89779 239.602 8.89779C241.117 8.89779 242.438 9.22923 243.565 9.89211C244.691 10.555 245.567 11.502 246.192 12.733C246.817 13.9546 247.13 15.4129 247.13 17.108V31.0001H241.079V18.1876C241.088 16.8523 240.747 15.8107 240.056 15.0626C239.365 14.305 238.413 13.9262 237.201 13.9262C236.387 13.9262 235.667 14.1014 235.042 14.4518C234.426 14.8021 233.943 15.3135 233.593 15.9859C233.252 16.6487 233.077 17.4489 233.067 18.3864Z" fill="black"/>
<path d="M258.121 31.412C256.729 31.412 255.488 31.1705 254.399 30.6876C253.31 30.1951 252.448 29.4707 251.814 28.5143C251.189 27.5484 250.876 26.3457 250.876 24.9063C250.876 23.6942 251.099 22.6762 251.544 21.8523C251.989 21.0285 252.595 20.3656 253.362 19.8637C254.129 19.3618 255 18.983 255.976 18.7273C256.961 18.4717 257.993 18.2917 259.072 18.1876C260.341 18.055 261.364 17.9319 262.141 17.8182C262.917 17.6951 263.481 17.5152 263.831 17.2785C264.181 17.0417 264.357 16.6914 264.357 16.2273V16.1421C264.357 15.2425 264.072 14.5465 263.504 14.054C262.946 13.5616 262.15 13.3154 261.118 13.3154C260.029 13.3154 259.162 13.5569 258.518 14.0398C257.874 14.5133 257.448 15.1099 257.24 15.8296L251.643 15.3751C251.928 14.0493 252.486 12.9035 253.32 11.9376C254.153 10.9622 255.228 10.2141 256.544 9.69325C257.87 9.16294 259.404 8.89779 261.146 8.89779C262.358 8.89779 263.518 9.03984 264.626 9.32393C265.744 9.60802 266.733 10.0484 267.595 10.645C268.466 11.2415 269.153 12.0086 269.655 12.9461C270.157 13.8741 270.408 14.9868 270.408 16.2842V31.0001H264.669V27.9745H264.499C264.148 28.6563 263.679 29.2576 263.092 29.7785C262.505 30.2898 261.8 30.6923 260.976 30.9859C260.152 31.27 259.2 31.412 258.121 31.412ZM259.854 27.2359C260.744 27.2359 261.53 27.0607 262.212 26.7103C262.893 26.3504 263.428 25.8675 263.817 25.2614C264.205 24.6554 264.399 23.9688 264.399 23.2018V20.8864C264.21 21.0095 263.949 21.1232 263.618 21.2273C263.296 21.322 262.931 21.412 262.524 21.4972C262.117 21.573 261.71 21.644 261.303 21.7103C260.895 21.7671 260.526 21.8192 260.195 21.8665C259.484 21.9707 258.864 22.1364 258.334 22.3637C257.803 22.591 257.392 22.8987 257.098 23.287C256.804 23.6658 256.658 24.1393 256.658 24.7075C256.658 25.5313 256.956 26.1611 257.553 26.5967C258.159 27.0228 258.926 27.2359 259.854 27.2359ZM257.311 6.49722L253.945 6.45461C253.945 4.6459 254.39 3.25859 255.28 2.29268C256.179 1.32677 257.273 0.839082 258.561 0.829612C259.224 0.829612 259.792 0.938513 260.266 1.15632C260.749 1.36465 261.179 1.61086 261.558 1.89495C261.946 2.17904 262.316 2.42999 262.666 2.64779C263.017 2.85613 263.395 2.96029 263.803 2.96029C264.352 2.95082 264.768 2.74723 265.053 2.3495C265.346 1.9423 265.493 1.412 265.493 0.758589L268.803 0.858019C268.784 2.64779 268.329 4.03037 267.439 5.00575C266.549 5.97166 265.464 6.45935 264.186 6.46882C263.476 6.46882 262.879 6.36465 262.396 6.15632C261.923 5.93851 261.506 5.6923 261.146 5.41768C260.786 5.13359 260.436 4.88264 260.095 4.66484C259.754 4.44704 259.371 4.33813 258.945 4.33813C258.452 4.33813 258.054 4.53226 257.751 4.92052C257.458 5.30878 257.311 5.83435 257.311 6.49722Z" fill="black"/>
<path d="M284.96 31.4262C282.754 31.4262 280.846 30.9575 279.236 30.02C277.635 29.073 276.4 27.7567 275.528 26.0711C274.657 24.376 274.222 22.4111 274.222 20.1762C274.222 17.9224 274.657 15.9527 275.528 14.2671C276.4 12.572 277.635 11.2557 279.236 10.3182C280.846 9.37128 282.754 8.89779 284.96 8.89779C287.167 8.89779 289.07 9.37128 290.67 10.3182C292.28 11.2557 293.521 12.572 294.392 14.2671C295.263 15.9527 295.699 17.9224 295.699 20.1762C295.699 22.4111 295.263 24.376 294.392 26.0711C293.521 27.7567 292.28 29.073 290.67 30.02C289.07 30.9575 287.167 31.4262 284.96 31.4262ZM284.989 26.7387C285.992 26.7387 286.83 26.4546 287.503 25.8864C288.175 25.3088 288.682 24.5228 289.023 23.5285C289.373 22.5342 289.548 21.4025 289.548 20.1336C289.548 18.8646 289.373 17.733 289.023 16.7387C288.682 15.7444 288.175 14.9584 287.503 14.3807C286.83 13.8031 285.992 13.5143 284.989 13.5143C283.975 13.5143 283.123 13.8031 282.432 14.3807C281.75 14.9584 281.234 15.7444 280.883 16.7387C280.543 17.733 280.372 18.8646 280.372 20.1336C280.372 21.4025 280.543 22.5342 280.883 23.5285C281.234 24.5228 281.75 25.3088 282.432 25.8864C283.123 26.4546 283.975 26.7387 284.989 26.7387Z" fill="black"/>
<path d="M320.624 9.18188V13.7273H307.158V9.18188H320.624ZM310.241 31.0001V7.60518C310.241 6.02374 310.548 4.71219 311.164 3.67052C311.789 2.62885 312.641 1.8476 313.721 1.32677C314.8 0.805936 316.027 0.545519 317.4 0.545519C318.328 0.545519 319.175 0.616542 319.942 0.758589C320.719 0.900634 321.297 1.02848 321.675 1.14211L320.596 5.68757C320.359 5.61181 320.066 5.54079 319.715 5.4745C319.374 5.40821 319.024 5.37507 318.664 5.37507C317.774 5.37507 317.154 5.5834 316.803 6.00007C316.453 6.40726 316.278 6.98018 316.278 7.71882V31.0001H310.241Z" fill="black"/>
<path d="M333.398 31.4262C331.191 31.4262 329.283 30.9575 327.673 30.02C326.073 29.073 324.837 27.7567 323.966 26.0711C323.095 24.376 322.659 22.4111 322.659 20.1762C322.659 17.9224 323.095 15.9527 323.966 14.2671C324.837 12.572 326.073 11.2557 327.673 10.3182C329.283 9.37128 331.191 8.89779 333.398 8.89779C335.604 8.89779 337.508 9.37128 339.108 10.3182C340.718 11.2557 341.958 12.572 342.83 14.2671C343.701 15.9527 344.136 17.9224 344.136 20.1762C344.136 22.4111 343.701 24.376 342.83 26.0711C341.958 27.7567 340.718 29.073 339.108 30.02C337.508 30.9575 335.604 31.4262 333.398 31.4262ZM333.426 26.7387C334.43 26.7387 335.268 26.4546 335.94 25.8864C336.613 25.3088 337.119 24.5228 337.46 23.5285C337.811 22.5342 337.986 21.4025 337.986 20.1336C337.986 18.8646 337.811 17.733 337.46 16.7387C337.119 15.7444 336.613 14.9584 335.94 14.3807C335.268 13.8031 334.43 13.5143 333.426 13.5143C332.413 13.5143 331.561 13.8031 330.869 14.3807C330.187 14.9584 329.671 15.7444 329.321 16.7387C328.98 17.733 328.81 18.8646 328.81 20.1336C328.81 21.4025 328.98 22.5342 329.321 23.5285C329.671 24.5228 330.187 25.3088 330.869 25.8864C331.561 26.4546 332.413 26.7387 333.426 26.7387Z" fill="black"/>
<path d="M348.071 31.0001V9.18188H354.122V31.0001H348.071ZM351.111 6.36938C350.211 6.36938 349.439 6.07109 348.795 5.4745C348.161 4.86844 347.844 4.14401 347.844 3.3012C347.844 2.46787 348.161 1.75291 348.795 1.15632C349.439 0.550255 350.211 0.247225 351.111 0.247225C352.01 0.247225 352.777 0.550255 353.412 1.15632C354.056 1.75291 354.378 2.46787 354.378 3.3012C354.378 4.14401 354.056 4.86844 353.412 5.4745C352.777 6.07109 352.01 6.36938 351.111 6.36938Z" fill="black"/>
<path d="M378.085 31.4262C375.85 31.4262 373.928 30.9527 372.318 30.0057C370.718 29.0493 369.487 27.7236 368.625 26.0285C367.773 24.3334 367.347 22.3826 367.347 20.1762C367.347 17.9414 367.777 15.9811 368.639 14.2955C369.51 12.6004 370.746 11.2794 372.347 10.3325C373.947 9.37601 375.85 8.89779 378.057 8.89779C379.96 8.89779 381.627 9.24344 383.057 9.93472C384.487 10.626 385.618 11.5967 386.452 12.8467C387.285 14.0967 387.744 15.5645 387.83 17.2501H382.119C381.958 16.1611 381.532 15.2851 380.841 14.6222C380.159 13.9499 379.264 13.6137 378.156 13.6137C377.219 13.6137 376.4 13.8694 375.699 14.3807C375.008 14.8826 374.468 15.6165 374.08 16.5825C373.691 17.5484 373.497 18.7179 373.497 20.091C373.497 21.483 373.687 22.6667 374.065 23.6421C374.454 24.6175 374.998 25.3609 375.699 25.8722C376.4 26.3836 377.219 26.6393 378.156 26.6393C378.848 26.6393 379.468 26.4972 380.017 26.2131C380.576 25.929 381.035 25.5171 381.395 24.9773C381.764 24.4281 382.006 23.77 382.119 23.0029H387.83C387.735 24.6696 387.28 26.1374 386.466 27.4063C385.661 28.6658 384.548 29.6506 383.128 30.3609C381.707 31.0711 380.026 31.4262 378.085 31.4262Z" fill="black"/>
<path d="M401.562 31.4262C399.355 31.4262 397.447 30.9575 395.837 30.02C394.237 29.073 393.001 27.7567 392.13 26.0711C391.259 24.376 390.823 22.4111 390.823 20.1762C390.823 17.9224 391.259 15.9527 392.13 14.2671C393.001 12.572 394.237 11.2557 395.837 10.3182C397.447 9.37128 399.355 8.89779 401.562 8.89779C403.768 8.89779 405.672 9.37128 407.272 10.3182C408.882 11.2557 410.122 12.572 410.994 14.2671C411.865 15.9527 412.3 17.9224 412.3 20.1762C412.3 22.4111 411.865 24.376 410.994 26.0711C410.122 27.7567 408.882 29.073 407.272 30.02C405.672 30.9575 403.768 31.4262 401.562 31.4262ZM401.59 26.7387C402.594 26.7387 403.432 26.4546 404.104 25.8864C404.777 25.3088 405.283 24.5228 405.624 23.5285C405.975 22.5342 406.15 21.4025 406.15 20.1336C406.15 18.8646 405.975 17.733 405.624 16.7387C405.283 15.7444 404.777 14.9584 404.104 14.3807C403.432 13.8031 402.594 13.5143 401.59 13.5143C400.577 13.5143 399.725 13.8031 399.033 14.3807C398.352 14.9584 397.835 15.7444 397.485 16.7387C397.144 17.733 396.974 18.8646 396.974 20.1336C396.974 21.4025 397.144 22.5342 397.485 23.5285C397.835 24.5228 398.352 25.3088 399.033 25.8864C399.725 26.4546 400.577 26.7387 401.59 26.7387Z" fill="black"/>
<path d="M422.286 18.3864V31.0001H416.235V9.18188H422.002V13.0313H422.258C422.741 11.7624 423.55 10.7586 424.687 10.02C425.823 9.27185 427.201 8.89779 428.82 8.89779C430.335 8.89779 431.656 9.22923 432.783 9.89211C433.91 10.555 434.786 11.502 435.411 12.733C436.036 13.9546 436.349 15.4129 436.349 17.108V31.0001H430.298V18.1876C430.307 16.8523 429.966 15.8107 429.275 15.0626C428.584 14.305 427.632 13.9262 426.42 13.9262C425.605 13.9262 424.886 14.1014 424.261 14.4518C423.645 14.8021 423.162 15.3135 422.812 15.9859C422.471 16.6487 422.296 17.4489 422.286 18.3864Z" fill="black"/>
<path d="M452.723 9.18188V13.7273H439.584V9.18188H452.723ZM442.567 3.95461H448.618V24.2955C448.618 24.8542 448.703 25.2898 448.874 25.6023C449.044 25.9054 449.281 26.1184 449.584 26.2415C449.896 26.3647 450.256 26.4262 450.663 26.4262C450.947 26.4262 451.232 26.4025 451.516 26.3552C451.8 26.2984 452.017 26.2557 452.169 26.2273L453.121 30.7302C452.818 30.8249 452.392 30.9338 451.842 31.0569C451.293 31.1895 450.625 31.27 449.839 31.2984C448.381 31.3552 447.103 31.1611 446.004 30.716C444.915 30.2709 444.068 29.5796 443.462 28.6421C442.856 27.7046 442.557 26.5209 442.567 25.091V3.95461Z" fill="black"/>
<path d="M456.665 31.0001V9.18188H462.531V12.9887H462.758C463.156 11.6345 463.824 10.6118 464.761 9.92052C465.699 9.21976 466.778 8.86938 468 8.86938C468.303 8.86938 468.63 8.88832 468.98 8.9262C469.33 8.96408 469.638 9.01617 469.903 9.08245V14.4518C469.619 14.3665 469.226 14.2908 468.724 14.2245C468.223 14.1582 467.763 14.1251 467.347 14.1251C466.456 14.1251 465.661 14.3192 464.96 14.7075C464.269 15.0862 463.72 15.6165 463.312 16.2984C462.915 16.9802 462.716 17.7662 462.716 18.6563V31.0001H456.665Z" fill="black"/>
<path d="M478.629 31.412C477.236 31.412 475.996 31.1705 474.907 30.6876C473.818 30.1951 472.956 29.4707 472.322 28.5143C471.697 27.5484 471.384 26.3457 471.384 24.9063C471.384 23.6942 471.607 22.6762 472.052 21.8523C472.497 21.0285 473.103 20.3656 473.87 19.8637C474.637 19.3618 475.508 18.983 476.484 18.7273C477.469 18.4717 478.501 18.2917 479.58 18.1876C480.849 18.055 481.872 17.9319 482.648 17.8182C483.425 17.6951 483.988 17.5152 484.339 17.2785C484.689 17.0417 484.864 16.6914 484.864 16.2273V16.1421C484.864 15.2425 484.58 14.5465 484.012 14.054C483.453 13.5616 482.658 13.3154 481.626 13.3154C480.537 13.3154 479.67 13.5569 479.026 14.0398C478.382 14.5133 477.956 15.1099 477.748 15.8296L472.151 15.3751C472.435 14.0493 472.994 12.9035 473.827 11.9376C474.661 10.9622 475.736 10.2141 477.052 9.69325C478.378 9.16294 479.912 8.89779 481.654 8.89779C482.866 8.89779 484.026 9.03984 485.134 9.32393C486.252 9.60802 487.241 10.0484 488.103 10.645C488.974 11.2415 489.661 12.0086 490.163 12.9461C490.665 13.8741 490.915 14.9868 490.915 16.2842V31.0001H485.177V27.9745H485.006C484.656 28.6563 484.187 29.2576 483.6 29.7785C483.013 30.2898 482.307 30.6923 481.484 30.9859C480.66 31.27 479.708 31.412 478.629 31.412ZM480.361 27.2359C481.252 27.2359 482.038 27.0607 482.719 26.7103C483.401 26.3504 483.936 25.8675 484.325 25.2614C484.713 24.6554 484.907 23.9688 484.907 23.2018V20.8864C484.718 21.0095 484.457 21.1232 484.126 21.2273C483.804 21.322 483.439 21.412 483.032 21.4972C482.625 21.573 482.218 21.644 481.81 21.7103C481.403 21.7671 481.034 21.8192 480.702 21.8665C479.992 21.9707 479.372 22.1364 478.842 22.3637C478.311 22.591 477.899 22.8987 477.606 23.287C477.312 23.6658 477.165 24.1393 477.165 24.7075C477.165 25.5313 477.464 26.1611 478.06 26.5967C478.666 27.0228 479.433 27.2359 480.361 27.2359Z" fill="black"/>
<path d="M507.215 9.18188V13.7273H494.076V9.18188H507.215ZM497.059 3.95461H503.11V24.2955C503.11 24.8542 503.195 25.2898 503.366 25.6023C503.536 25.9054 503.773 26.1184 504.076 26.2415C504.388 26.3647 504.748 26.4262 505.155 26.4262C505.44 26.4262 505.724 26.4025 506.008 26.3552C506.292 26.2984 506.51 26.2557 506.661 26.2273L507.613 30.7302C507.31 30.8249 506.884 30.9338 506.335 31.0569C505.785 31.1895 505.118 31.27 504.332 31.2984C502.873 31.3552 501.595 31.1611 500.496 30.716C499.407 30.2709 498.56 29.5796 497.954 28.6421C497.348 27.7046 497.049 26.5209 497.059 25.091V3.95461Z" fill="black"/>
<path d="M517.378 31.412C515.986 31.412 514.746 31.1705 513.657 30.6876C512.568 30.1951 511.706 29.4707 511.072 28.5143C510.447 27.5484 510.134 26.3457 510.134 24.9063C510.134 23.6942 510.357 22.6762 510.802 21.8523C511.247 21.0285 511.853 20.3656 512.62 19.8637C513.387 19.3618 514.258 18.983 515.234 18.7273C516.218 18.4717 517.251 18.2917 518.33 18.1876C519.599 18.055 520.622 17.9319 521.398 17.8182C522.175 17.6951 522.738 17.5152 523.089 17.2785C523.439 17.0417 523.614 16.6914 523.614 16.2273V16.1421C523.614 15.2425 523.33 14.5465 522.762 14.054C522.203 13.5616 521.408 13.3154 520.376 13.3154C519.287 13.3154 518.42 13.5569 517.776 14.0398C517.132 14.5133 516.706 15.1099 516.498 15.8296L510.901 15.3751C511.185 14.0493 511.744 12.9035 512.577 11.9376C513.411 10.9622 514.485 10.2141 515.802 9.69325C517.128 9.16294 518.662 8.89779 520.404 8.89779C521.616 8.89779 522.776 9.03984 523.884 9.32393C525.002 9.60802 525.991 10.0484 526.853 10.645C527.724 11.2415 528.411 12.0086 528.913 12.9461C529.414 13.8741 529.665 14.9868 529.665 16.2842V31.0001H523.927V27.9745H523.756C523.406 28.6563 522.937 29.2576 522.35 29.7785C521.763 30.2898 521.057 30.6923 520.234 30.9859C519.41 31.27 518.458 31.412 517.378 31.412ZM519.111 27.2359C520.002 27.2359 520.788 27.0607 521.469 26.7103C522.151 26.3504 522.686 25.8675 523.075 25.2614C523.463 24.6554 523.657 23.9688 523.657 23.2018V20.8864C523.468 21.0095 523.207 21.1232 522.876 21.2273C522.554 21.322 522.189 21.412 521.782 21.4972C521.375 21.573 520.968 21.644 520.56 21.7103C520.153 21.7671 519.784 21.8192 519.452 21.8665C518.742 21.9707 518.122 22.1364 517.592 22.3637C517.061 22.591 516.649 22.8987 516.356 23.287C516.062 23.6658 515.915 24.1393 515.915 24.7075C515.915 25.5313 516.214 26.1611 516.81 26.5967C517.416 27.0228 518.183 27.2359 519.111 27.2359Z" fill="black"/>
<path d="M542.4 31.3552C540.743 31.3552 539.242 30.929 537.897 30.0768C536.562 29.215 535.501 27.9508 534.715 26.2842C533.939 24.608 533.55 22.5531 533.55 20.1194C533.55 17.6194 533.953 15.5408 534.758 13.8836C535.563 12.2169 536.633 10.9717 537.968 10.1478C539.313 9.31446 540.785 8.89779 542.386 8.89779C543.607 8.89779 544.625 9.10613 545.44 9.52279C546.263 9.92999 546.926 10.4414 547.428 11.0569C547.94 11.6629 548.328 12.2595 548.593 12.8467H548.778V1.90916H554.815V31.0001H548.849V27.5057H548.593C548.309 28.1118 547.906 28.7131 547.386 29.3097C546.874 29.8968 546.207 30.3845 545.383 30.7728C544.568 31.1611 543.574 31.3552 542.4 31.3552ZM544.317 26.5398C545.293 26.5398 546.117 26.2747 546.789 25.7444C547.471 25.2046 547.992 24.4518 548.352 23.4859C548.721 22.52 548.905 21.3883 548.905 20.091C548.905 18.7936 548.726 17.6667 548.366 16.7103C548.006 15.7539 547.485 15.0152 546.803 14.4944C546.121 13.9736 545.293 13.7131 544.317 13.7131C543.323 13.7131 542.485 13.983 541.803 14.5228C541.121 15.0626 540.605 15.8107 540.255 16.7671C539.904 17.7236 539.729 18.8315 539.729 20.091C539.729 21.3599 539.904 22.4821 540.255 23.4575C540.615 24.4234 541.131 25.1809 541.803 25.7302C542.485 26.27 543.323 26.5398 544.317 26.5398Z" fill="black"/>
<path d="M569.648 31.4262C567.441 31.4262 565.533 30.9575 563.923 30.02C562.323 29.073 561.087 27.7567 560.216 26.0711C559.345 24.376 558.909 22.4111 558.909 20.1762C558.909 17.9224 559.345 15.9527 560.216 14.2671C561.087 12.572 562.323 11.2557 563.923 10.3182C565.533 9.37128 567.441 8.89779 569.648 8.89779C571.854 8.89779 573.758 9.37128 575.358 10.3182C576.968 11.2557 578.208 12.572 579.079 14.2671C579.951 15.9527 580.386 17.9224 580.386 20.1762C580.386 22.4111 579.951 24.376 579.079 26.0711C578.208 27.7567 576.968 29.073 575.358 30.02C573.758 30.9575 571.854 31.4262 569.648 31.4262ZM569.676 26.7387C570.68 26.7387 571.518 26.4546 572.19 25.8864C572.863 25.3088 573.369 24.5228 573.71 23.5285C574.061 22.5342 574.236 21.4025 574.236 20.1336C574.236 18.8646 574.061 17.733 573.71 16.7387C573.369 15.7444 572.863 14.9584 572.19 14.3807C571.518 13.8031 570.68 13.5143 569.676 13.5143C568.663 13.5143 567.811 13.8031 567.119 14.3807C566.437 14.9584 565.921 15.7444 565.571 16.7387C565.23 17.733 565.06 18.8646 565.06 20.1336C565.06 21.4025 565.23 22.5342 565.571 23.5285C565.921 24.5228 566.437 25.3088 567.119 25.8864C567.811 26.4546 568.663 26.7387 569.676 26.7387Z" fill="black"/>
</svg>
